<?xml version="1.0" encoding="utf-8"?>
<!-- Generator: Adobe Illustrator 21.0.2, SVG Export Plug-In . SVG Version: 6.00 Build 0)  -->
<svg version="1.1" id="Calque_2" xmlns="http://www.w3.org/2000/svg" xmlns:xlink="http://www.w3.org/1999/xlink" x="0px" y="0px"
	 viewBox="0 0 2202 1238" style="enable-background:new 0 0 2202 1238;" xml:space="preserve">
<style type="text/css">
	.st0{fill:url(#SVGID_1_);}
	.st1{fill:#253024;stroke:#000000;stroke-width:13;stroke-miterlimit:10;}
	.st2{fill:#020202;}
	.st3{fill:none;stroke:#020202;stroke-width:11;stroke-miterlimit:10;}
</style>
<radialGradient id="SVGID_1_" cx="1102.3848" cy="628.6075" r="902.8517" gradientTransform="matrix(1.0225 0 0 1.1033 -24.6409 -64.8844)" gradientUnits="userSpaceOnUse">
	<stop  offset="0" style="stop-color:#FFFFFF"/>
	<stop  offset="0" style="stop-color:#000000"/>
	<stop  offset="8.179560e-02" style="stop-color:#020300"/>
	<stop  offset="0.1523" style="stop-color:#080E00"/>
	<stop  offset="0.2186" style="stop-color:#122000"/>
	<stop  offset="0.2824" style="stop-color:#213900"/>
	<stop  offset="0.3444" style="stop-color:#345900"/>
	<stop  offset="0.405" style="stop-color:#4A8100"/>
	<stop  offset="0.4634" style="stop-color:#65AF00"/>
	<stop  offset="0.4941" style="stop-color:#75CA00"/>
	<stop  offset="0.4961" style="stop-color:#74C800"/>
	<stop  offset="0.5683" style="stop-color:#569400"/>
	<stop  offset="0.6416" style="stop-color:#3B6700"/>
	<stop  offset="0.7145" style="stop-color:#264200"/>
	<stop  offset="0.7871" style="stop-color:#152500"/>
	<stop  offset="0.8591" style="stop-color:#091000"/>
	<stop  offset="0.9303" style="stop-color:#020400"/>
	<stop  offset="1" style="stop-color:#000000"/>
</radialGradient>
<rect x="-21.2" y="-88.5" class="st0" width="2247.6" height="1434.2"/>
<rect x="881.8" y="295.7" class="st1" width="446" height="657.9"/>
<rect x="838.7" y="342.3" class="st2" width="43.9" height="66.3"/>
<rect x="838.7" y="444.8" class="st2" width="43.9" height="66.3"/>
<rect x="838.7" y="547.4" class="st2" width="43.9" height="66.3"/>
<rect x="838.7" y="649.9" class="st2" width="43.9" height="66.3"/>
<rect x="838.7" y="752.5" class="st2" width="43.9" height="66.3"/>
<rect x="838.7" y="855.1" class="st2" width="43.9" height="66.3"/>
<rect x="1328.5" y="342.3" class="st2" width="43.9" height="66.3"/>
<rect x="1328.5" y="444.8" class="st2" width="43.9" height="66.3"/>
<rect x="1328.5" y="547.4" class="st2" width="43.9" height="66.3"/>
<rect x="1328.5" y="649.9" class="st2" width="43.9" height="66.3"/>
<rect x="1328.5" y="752.5" class="st2" width="43.9" height="66.3"/>
<rect x="1328.5" y="855.1" class="st2" width="43.9" height="66.3"/>
<rect x="1216.7" y="248.2" class="st2" width="61.4" height="47.3"/>
<rect x="1121.6" y="248.3" class="st2" width="61.4" height="47.3"/>
<rect x="1026.6" y="248.5" class="st2" width="61.4" height="47.3"/>
<rect x="931.5" y="248.6" class="st2" width="61.4" height="47.3"/>
<rect x="1216.7" y="953.5" class="st2" width="61.4" height="47.3"/>
<rect x="1121.6" y="953.6" class="st2" width="61.4" height="47.3"/>
<rect x="1026.6" y="953.7" class="st2" width="61.4" height="47.3"/>
<rect x="931.5" y="953.8" class="st2" width="61.4" height="47.3"/>
<line class="st3" x1="1349.7" y1="374.6" x2="1620.3" y2="374.6"/>
<line class="st3" x1="1614.4" y1="377.8" x2="2031.2" y2="-71.9"/>
<line class="st3" x1="1356.3" y1="892.1" x2="1626.8" y2="892.1"/>
<line class="st3" x1="1621" y1="889.2" x2="1956.6" y2="1245.6"/>
<line class="st3" x1="1356.3" y1="779.6" x2="1697.1" y2="779.6"/>
<line class="st3" x1="1692.7" y1="777.2" x2="2132.1" y2="1242.4"/>
<line class="st3" x1="1350.5" y1="683.4" x2="2265.1" y2="683.9"/>
<line class="st3" x1="1334.4" y1="580.8" x2="2263.7" y2="581.3"/>
<line class="st3" x1="1343.2" y1="481.6" x2="1684" y2="481.6"/>
<line class="st3" x1="1676.6" y1="485.3" x2="2136.5" y2="14.9"/>
<line class="st3" x1="1792.1" y1="682.5" x2="2231.5" y2="1147.7"/>
<line class="st3" x1="1795.1" y1="582.9" x2="2234.4" y2="117.7"/>
<line class="st3" x1="875.2" y1="368.3" x2="604.7" y2="368.3"/>
<line class="st3" x1="610.5" y1="371.5" x2="193.8" y2="-78.2"/>
<line class="st3" x1="868.6" y1="885.8" x2="598.1" y2="885.8"/>
<line class="st3" x1="604" y1="882.9" x2="268.3" y2="1239.2"/>
<line class="st3" x1="868.6" y1="773.3" x2="527.8" y2="773.3"/>
<line class="st3" x1="532.2" y1="770.9" x2="92.9" y2="1236.1"/>
<line class="st3" x1="874.5" y1="677.1" x2="-40.2" y2="677.6"/>
<line class="st3" x1="886.2" y1="574.5" x2="-42.4" y2="575"/>
<line class="st3" x1="881.8" y1="475.3" x2="541" y2="475.3"/>
<line class="st3" x1="548.3" y1="479" x2="88.5" y2="8.6"/>
<line class="st3" x1="432.8" y1="676.2" x2="-6.6" y2="1141.4"/>
<line class="st3" x1="429.9" y1="576.6" x2="-9.5" y2="111.4"/>
<line class="st3" x1="239.8" y1="676.2" x2="-199.6" y2="1141.4"/>
<line class="st3" x1="236.9" y1="576.6" x2="-202.5" y2="111.4"/>
<line class="st3" x1="1945.7" y1="674.6" x2="2385.1" y2="1139.8"/>
<line class="st3" x1="1948.6" y1="575" x2="2388" y2="109.8"/>
<line class="st3" x1="962.2" y1="986" x2="962.2" y2="1053.9"/>
<line class="st3" x1="1152.3" y1="986" x2="1152.3" y2="1053.9"/>
<line class="st3" x1="1057.3" y1="986" x2="1057.3" y2="1053.9"/>
<line class="st3" x1="1247.4" y1="986" x2="1247.4" y2="1053.9"/>
<line class="st3" x1="962.2" y1="1046.8" x2="729.7" y2="1356"/>
<line class="st3" x1="1058.7" y1="1046.8" x2="826.2" y2="1356"/>
<line class="st3" x1="1153.8" y1="1046.8" x2="921.3" y2="1356"/>
<line class="st3" x1="1250.3" y1="1046.8" x2="1017.8" y2="1356"/>
<line class="st3" x1="1244.4" y1="270.5" x2="1244.4" y2="202.6"/>
<line class="st3" x1="1054.3" y1="270.5" x2="1054.3" y2="202.6"/>
<line class="st3" x1="1149.4" y1="270.5" x2="1149.4" y2="202.6"/>
<line class="st3" x1="959.3" y1="270.5" x2="959.3" y2="202.6"/>
<line class="st3" x1="1244.4" y1="209.7" x2="1477" y2="-99.5"/>
<line class="st3" x1="1147.9" y1="209.7" x2="1380.4" y2="-99.5"/>
<line class="st3" x1="1052.9" y1="209.7" x2="1285.4" y2="-99.5"/>
<line class="st3" x1="956.4" y1="209.7" x2="1188.9" y2="-99.5"/>
</svg>
